<svg xmlns="http://www.w3.org/2000/svg" viewBox="0 0 372 425"><path stroke="white" fill="white" d="M34.5 24.569c-3.906 2.028-8.316 6.238-10.089 9.631C23.215 36.488 23 58.907 23 180.993v144.093l4.719 5.044c2.595 2.775 5.947 5.68 7.45 6.457C37.486 337.786 60.416 338 186.255 338h148.353l4.652-2.95c2.559-1.623 5.797-4.764 7.196-6.98l2.544-4.03V36.3l-2.958-4.083c-1.627-2.246-4.929-5.238-7.338-6.65L334.324 23l-148.412.006c-132.381.006-148.736.175-151.412 1.563m27.956 40.685c-.275.716-.377 10.29-.228 21.274L62.5 106.5l93 .5c92.909.5 93.004.502 97 2.658 17.301 9.336 18.881 33.831 2.924 45.342l-4.852 3.5-17.818.313-17.817.314-8.54 11.541c-4.697 6.348-8.781 12.168-9.074 12.934-.48 1.249 8.957 17.428 53.747 92.148L264.408 298h47.662l-1.191-2.25c-2.283-4.313-29.209-50.406-41.972-71.851-15.466-25.987-14.869-24.637-11.248-25.466 27.294-6.249 44.929-25.682 49.419-54.456 5.159-33.061-14.221-65.555-45.75-76.708L253.5 64.5l-95.272-.274c-77.542-.224-95.365-.032-95.772 1.028M102 160.594c-10.677 4.625-16.748 18.584-12.502 28.747 7.82 18.716 33.317 19.426 41.636 1.159 8.106-17.798-11.24-37.657-29.134-29.906M62.23 276.243l.27 21.257 78.859.256c74.852.243 78.826.167 78.202-1.5-1.009-2.691-7.933-14.645-16.432-28.366l-7.674-12.39-66.747-.257-66.748-.257.27 21.257" fill-rule="evenodd"/></svg>