<svg xmlns="http://www.w3.org/2000/svg" viewBox="0 0 372 425"><path d="M34.5 24.569c-3.906 2.028-8.316 6.238-10.089 9.631C23.215 36.488 23 58.907 23 180.993v144.093l4.719 5.044c2.595 2.775 5.947 5.68 7.45 6.457C37.486 337.786 60.396 338 186.112 338h148.212l4.306-2.523c2.369-1.388 5.671-4.507 7.338-6.931L349 324.14V36.3l-2.958-4.083c-1.627-2.246-4.929-5.238-7.338-6.65L334.324 23l-148.412.006c-132.381.006-148.736.175-151.412 1.563m28.191 40.073c-.38.38-.691 10.066-.691 21.525V107l92.25.01 92.25.01 5 2.363c18.17 8.59 20.337 33.778 3.924 45.617l-4.852 3.5-17.818.313-17.817.314-8.54 11.541c-4.697 6.348-8.779 12.165-9.072 12.927-.494 1.288 10.541 20.241 51.036 87.655L264.429 298H312.07l-1.191-2.25c-2.283-4.313-29.209-50.406-41.972-71.851-15.466-25.987-14.869-24.637-11.248-25.466 27.294-6.249 44.929-25.682 49.419-54.456 5.159-33.061-14.221-65.555-45.75-76.708L253.5 64.5l-95.059-.274c-52.283-.151-95.37.036-95.75.416M102 160.594c-10.677 4.625-16.748 18.584-12.502 28.747 7.82 18.716 33.317 19.426 41.636 1.159 8.106-17.798-11.24-37.657-29.134-29.906M62.23 276.243l.27 21.257 78.859.256c74.852.243 78.826.167 78.202-1.5-1.009-2.691-7.933-14.645-16.432-28.366l-7.674-12.39-66.747-.257-66.748-.257.27 21.257M28 365v3h6c3.3 0 5.995.337 5.989.75-.007.413-3.157 4.916-7 10.007C23.103 391.851 23.159 392 38 392h12v-6h-7c-3.85 0-7-.223-7-.495 0-.273 3.15-4.645 7-9.716C53.005 362.611 52.827 362 39 362H28v3m44-2.094c0 .498-2.7 6.992-6 14.431C58.917 393.306 59.135 392 63.552 392c3.048 0 3.701-.426 4.598-3 1.552-4.452 12.958-4.641 15.052-.25.983 2.061 2.158 2.831 4.69 3.073 3.976.381 4.32 1.937-3.667-16.573-5.658-13.114-5.75-13.25-8.971-13.25-1.79 0-3.254.407-3.254.906m34.304.991c-11.919 7.489-8.182 25.968 5.626 27.82 7.905 1.061 15.911-3.741 12.056-7.229-1.923-1.741-2.215-1.749-5.542-.163-4.683 2.233-5.751 2.129-9.367-.914-7.623-6.414 1.187-19.876 8.913-13.62 2.208 1.788 2.548 1.808 5.18.311 3.561-2.025 3.533-2.465-.328-5.215-4.458-3.174-12.313-3.645-16.538-.99M137 377.5c0 16.248.091 16.554 4.418 14.893 1.172-.45 1.582-2.005 1.582-6V381h13v11h7.053l-.276-14.723c-.302-16.049.089-15.068-5.727-14.388-.523.061-1.085 2.698-1.25 5.861l-.3 5.75h-12l-.298-6.25c-.294-6.188-.327-6.25-3.25-6.25H137v15.5m56.75-14.921c-.412.415-.75 7.204-.75 15.088V392h3.5c3.417 0 3.5-.095 3.5-4 0-3.862.114-4 3.316-4 2.827 0 3.647.59 5.564 4 2.036 3.624 2.624 4 6.242 4h3.993l-2.703-4.809-2.703-4.809 2.767-2.767c3.706-3.706 3.122-9.478-1.42-14.022-2.912-2.913-3.602-3.113-11.824-3.431-4.803-.186-9.07.002-9.482.417M231 377v15h6v-30h-6v15m19-12.046c0 2.943.025 2.956 6.579 3.25l6.579.296-6.579 8.715c-4.746 6.287-6.579 9.561-6.579 11.75V392h23v-6h-6.607c-7.893 0-7.909.301.607-11.42 8.837-12.163 8.654-12.58-5.5-12.58H250v2.954m36 .046v3h6c3.3 0 6 .269 6 .598 0 .878-10.932 16.242-12.048 16.932-.524.323-.952 1.911-.952 3.529V392h24v-6h-7c-3.85 0-7-.287-7-.637 0-.35 2.925-4.698 6.5-9.662C310.929 362.61 310.728 362 297 362h-11v3m38.547.093c-10.602 9.309-3.957 26.917 10.153 26.903 10.947-.011 18.104-13.245 12.305-22.755-4.757-7.803-15.943-9.869-22.458-4.148m6.81 3.899c-8.253 3.33-6.24 16.008 2.541 16.008 9.446 0 11.849-12.801 2.983-15.892-1.749-.609-3.225-1.079-3.28-1.045-.056.035-1.065.453-2.244.929M200 373v4.105l5.147-.303c9.564-.561 9.564-7.043 0-7.604l-5.147-.303V373m-126.392 1.397C71.555 379.31 71.427 379 75.5 379c4.005 0 4.083-.247 1.566-4.976l-1.851-3.475-1.607 3.848" fill-rule="evenodd"/></svg>